<svg xmlns="http://www.w3.org/2000/svg" viewBox="0 0 60 30">
  <defs>
    <clipPath id="t">
      <path d="m30,15 h30 v15 z v15 h-30 z h-30 v-15 z v-15 h30 z"/>
    </clipPath>
  </defs>
  <path fill="#b22234" d="m0,0 h60 v30 h-60 z"/>
  <path stroke="#fff" stroke-width="2" d="m0,2 h60 m0,4 h60 m0,4 h60 m0,4 h60 m0,4 h60 m0,4 h60 m0,4 h60"/>
  <path fill="#3c3b6e" d="m0,0 h24 v16 h-24 z"/>
  <g fill="#fff">
    <g id="s18">
      <g id="s9">
        <g id="s5">
          <g id="s4">
            <path id="s" d="m2,1 l0.31,0.95 l1,0 l-0.81,0.59 l0.31,0.95 l-0.81,-0.59 l-0.81,0.59 l0.31,-0.95 l-0.81,-0.59 l1,0 z"/>
            <use href="#s" y="4"/>
            <use href="#s" y="8"/>
            <use href="#s" y="12"/>
          </g>
          <use href="#s" y="2"/>
        </g>
        <g id="s4">
          <use href="#s5" x="4"/>
          <use href="#s4" x="8"/>
        </g>
      </g>
      <use href="#s9" x="12"/>
    </g>
    <use href="#s18" x="0"/>
  </g>
</svg>